# Exported from ProBuilder
# http://www.procore3d.com/probuilder
# 9/12/2018 8:16:55 PM

mtllib ./Cylinder.mtl
o Cylinder

g Cylinder
v -4 0.4616513 0
v -4 1 0
v -3.912591 0.4616513 0.8316468
v -3.912591 1 0.8316468
v -3.912591 0.4616513 0.8316468
v -3.912591 1 0.8316468
v -3.654182 0.4616513 1.626947
v -3.654182 1 1.626947
v -3.654182 0.4616513 1.626947
v -3.654182 1 1.626947
v -3.236068 0.4616513 2.351141
v -3.236068 1 2.351141
v -3.236068 0.4616513 2.351141
v -3.236068 1 2.351141
v -2.676522 0.4616513 2.972579
v -2.676522 1 2.972579
v -2.676522 0.4616513 2.972579
v -2.676522 1 2.972579
v -2 0.4616513 3.464102
v -2 1 3.464102
v -2 0.4616513 3.464102
v -2 1 3.464102
v -1.236068 0.4616513 3.804226
v -1.236068 1 3.804226
v -1.236068 0.4616513 3.804226
v -1.236068 1 3.804226
v -0.4181137 0.4616513 3.978088
v -0.4181137 1 3.978088
v -0.4181137 0.4616513 3.978088
v -0.4181137 1 3.978088
v 0.418114 0.4616513 3.978088
v 0.418114 1 3.978088
v 0.418114 0.4616513 3.978088
v 0.418114 1 3.978088
v 1.236068 0.4616513 3.804226
v 1.236068 1 3.804226
v 1.236068 0.4616513 3.804226
v 1.236068 1 3.804226
v 2 0.4616513 3.464102
v 2 1 3.464102
v 2 0.4616513 3.464102
v 2 1 3.464102
v 2.676523 0.4616513 2.972579
v 2.676523 1 2.972579
v 2.676523 0.4616513 2.972579
v 2.676523 1 2.972579
v 3.236068 0.4616513 2.351141
v 3.236068 1 2.351141
v 3.236068 0.4616513 2.351141
v 3.236068 1 2.351141
v 3.654182 0.4616513 1.626946
v 3.654182 1 1.626946
v 3.654182 0.4616513 1.626946
v 3.654182 1 1.626946
v 3.912591 0.4616513 0.8316464
v 3.912591 1 0.8316464
v 3.912591 0.4616513 0.8316464
v 3.912591 1 0.8316464
v 4 0.4616513 -3.496911E-07
v 4 1 -3.496911E-07
v 4 0.4616513 -3.496911E-07
v 4 1 -3.496911E-07
v 3.91259 0.4616513 -0.8316472
v 3.91259 1 -0.8316472
v 3.91259 0.4616513 -0.8316472
v 3.91259 1 -0.8316472
v 3.654182 0.4616513 -1.626946
v 3.654182 1 -1.626946
v 3.654182 0.4616513 -1.626946
v 3.654182 1 -1.626946
v 3.236068 0.4616513 -2.35114
v 3.236068 1 -2.35114
v 3.236068 0.4616513 -2.35114
v 3.236068 1 -2.35114
v 2.676523 0.4616513 -2.972579
v 2.676523 1 -2.972579
v 2.676523 0.4616513 -2.972579
v 2.676523 1 -2.972579
v 2 0.4616513 -3.464102
v 2 1 -3.464102
v 2 0.4616513 -3.464102
v 2 1 -3.464102
v 1.236068 0.4616513 -3.804226
v 1.236068 1 -3.804226
v 1.236068 0.4616513 -3.804226
v 1.236068 1 -3.804226
v 0.4181134 0.4616513 -3.978088
v 0.4181134 1 -3.978088
v 0.4181134 0.4616513 -3.978088
v 0.4181134 1 -3.978088
v -0.4181134 0.4616513 -3.978088
v -0.4181134 1 -3.978088
v -0.4181134 0.4616513 -3.978088
v -0.4181134 1 -3.978088
v -1.236068 0.4616513 -3.804226
v -1.236068 1 -3.804226
v -1.236068 0.4616513 -3.804226
v -1.236068 1 -3.804226
v -2 0.4616513 -3.464102
v -2 1 -3.464102
v -2 0.4616513 -3.464102
v -2 1 -3.464102
v -2.676523 0.4616513 -2.972579
v -2.676523 1 -2.972579
v -2.676523 0.4616513 -2.972579
v -2.676523 1 -2.972579
v -3.236068 0.4616513 -2.351141
v -3.236068 1 -2.351141
v -3.236068 0.4616513 -2.351141
v -3.236068 1 -2.351141
v -3.654182 0.4616513 -1.626946
v -3.654182 1 -1.626946
v -3.654182 0.4616513 -1.626946
v -3.654182 1 -1.626946
v -3.91259 0.4616513 -0.831647
v -3.91259 1 -0.831647
v -3.91259 0.4616513 -0.831647
v -3.91259 1 -0.831647
v -4 0.4616513 0
v -4 1 0
v -4 0.4616513 0
v 0 0.4616513 0
v -3.912591 0.4616513 0.8316468
v -4 1 0
v 0 1 0
v -3.912591 1 0.8316468
v -3.912591 0.4616513 0.8316468
v 0 0.4616513 0
v -3.654182 0.4616513 1.626947
v -3.912591 1 0.8316468
v 0 1 0
v -3.654182 1 1.626947
v -3.654182 0.4616513 1.626947
v 0 0.4616513 0
v -3.236068 0.4616513 2.351141
v -3.654182 1 1.626947
v 0 1 0
v -3.236068 1 2.351141
v -3.236068 0.4616513 2.351141
v 0 0.4616513 0
v -2.676522 0.4616513 2.972579
v -3.236068 1 2.351141
v 0 1 0
v -2.676522 1 2.972579
v -2.676522 0.4616513 2.972579
v 0 0.4616513 0
v -2 0.4616513 3.464102
v -2.676522 1 2.972579
v 0 1 0
v -2 1 3.464102
v -2 0.4616513 3.464102
v 0 0.4616513 0
v -1.236068 0.4616513 3.804226
v -2 1 3.464102
v 0 1 0
v -1.236068 1 3.804226
v -1.236068 0.4616513 3.804226
v 0 0.4616513 0
v -0.4181137 0.4616513 3.978088
v -1.236068 1 3.804226
v 0 1 0
v -0.4181137 1 3.978088
v -0.4181137 0.4616513 3.978088
v 0 0.4616513 0
v 0.418114 0.4616513 3.978088
v -0.4181137 1 3.978088
v 0 1 0
v 0.418114 1 3.978088
v 0.418114 0.4616513 3.978088
v 0 0.4616513 0
v 1.236068 0.4616513 3.804226
v 0.418114 1 3.978088
v 0 1 0
v 1.236068 1 3.804226
v 1.236068 0.4616513 3.804226
v 0 0.4616513 0
v 2 0.4616513 3.464102
v 1.236068 1 3.804226
v 0 1 0
v 2 1 3.464102
v 2 0.4616513 3.464102
v 0 0.4616513 0
v 2.676523 0.4616513 2.972579
v 2 1 3.464102
v 0 1 0
v 2.676523 1 2.972579
v 2.676523 0.4616513 2.972579
v 0 0.4616513 0
v 3.236068 0.4616513 2.351141
v 2.676523 1 2.972579
v 0 1 0
v 3.236068 1 2.351141
v 3.236068 0.4616513 2.351141
v 0 0.4616513 0
v 3.654182 0.4616513 1.626946
v 3.236068 1 2.351141
v 0 1 0
v 3.654182 1 1.626946
v 3.654182 0.4616513 1.626946
v 0 0.4616513 0
v 3.912591 0.4616513 0.8316464
v 3.654182 1 1.626946
v 0 1 0
v 3.912591 1 0.8316464
v 3.912591 0.4616513 0.8316464
v 0 0.4616513 0
v 4 0.4616513 -3.496911E-07
v 3.912591 1 0.8316464
v 0 1 0
v 4 1 -3.496911E-07
v 4 0.4616513 -3.496911E-07
v 0 0.4616513 0
v 3.91259 0.4616513 -0.8316472
v 4 1 -3.496911E-07
v 0 1 0
v 3.91259 1 -0.8316472
v 3.91259 0.4616513 -0.8316472
v 0 0.4616513 0
v 3.654182 0.4616513 -1.626946
v 3.91259 1 -0.8316472
v 0 1 0
v 3.654182 1 -1.626946
v 3.654182 0.4616513 -1.626946
v 0 0.4616513 0
v 3.236068 0.4616513 -2.35114
v 3.654182 1 -1.626946
v 0 1 0
v 3.236068 1 -2.35114
v 3.236068 0.4616513 -2.35114
v 0 0.4616513 0
v 2.676523 0.4616513 -2.972579
v 3.236068 1 -2.35114
v 0 1 0
v 2.676523 1 -2.972579
v 2.676523 0.4616513 -2.972579
v 0 0.4616513 0
v 2 0.4616513 -3.464102
v 2.676523 1 -2.972579
v 0 1 0
v 2 1 -3.464102
v 2 0.4616513 -3.464102
v 0 0.4616513 0
v 1.236068 0.4616513 -3.804226
v 2 1 -3.464102
v 0 1 0
v 1.236068 1 -3.804226
v 1.236068 0.4616513 -3.804226
v 0 0.4616513 0
v 0.4181134 0.4616513 -3.978088
v 1.236068 1 -3.804226
v 0 1 0
v 0.4181134 1 -3.978088
v 0.4181134 0.4616513 -3.978088
v 0 0.4616513 0
v -0.4181134 0.4616513 -3.978088
v 0.4181134 1 -3.978088
v 0 1 0
v -0.4181134 1 -3.978088
v -0.4181134 0.4616513 -3.978088
v 0 0.4616513 0
v -1.236068 0.4616513 -3.804226
v -0.4181134 1 -3.978088
v 0 1 0
v -1.236068 1 -3.804226
v -1.236068 0.4616513 -3.804226
v 0 0.4616513 0
v -2 0.4616513 -3.464102
v -1.236068 1 -3.804226
v 0 1 0
v -2 1 -3.464102
v -2 0.4616513 -3.464102
v 0 0.4616513 0
v -2.676523 0.4616513 -2.972579
v -2 1 -3.464102
v 0 1 0
v -2.676523 1 -2.972579
v -2.676523 0.4616513 -2.972579
v 0 0.4616513 0
v -3.236068 0.4616513 -2.351141
v -2.676523 1 -2.972579
v 0 1 0
v -3.236068 1 -2.351141
v -3.236068 0.4616513 -2.351141
v 0 0.4616513 0
v -3.654182 0.4616513 -1.626946
v -3.236068 1 -2.351141
v 0 1 0
v -3.654182 1 -1.626946
v -3.654182 0.4616513 -1.626946
v 0 0.4616513 0
v -3.91259 0.4616513 -0.831647
v -3.654182 1 -1.626946
v 0 1 0
v -3.91259 1 -0.831647
v -3.91259 0.4616513 -0.831647
v 0 0.4616513 0
v -4 0.4616513 0
v -3.91259 1 -0.831647
v 0 1 0
v -4 1 0

vn -0.9945219 0 -1.229346E-07
vn -0.9945219 0 -1.229346E-07
vn -0.9727892 0 0.2067728
vn -0.9727892 0 0.2067728
vn -0.9727892 0 0.2067728
vn -0.9727892 0 0.2067728
vn -0.908541 0 0.4045086
vn -0.908541 0 0.4045086
vn -0.908541 0 0.4045086
vn -0.908541 0 0.4045086
vn -0.8045852 0 0.5845653
vn -0.8045852 0 0.5845653
vn -0.8045852 0 0.5845653
vn -0.8045852 0 0.5845653
vn -0.6654651 0 0.7390738
vn -0.6654651 0 0.7390738
vn -0.6654651 0 0.7390738
vn -0.6654651 0 0.7390738
vn -0.4972609 0 0.8612812
vn -0.4972609 0 0.8612812
vn -0.4972609 0 0.8612812
vn -0.4972609 0 0.8612812
vn -0.3073241 0 0.9458466
vn -0.3073241 0 0.9458466
vn -0.3073241 0 0.9458466
vn -0.3073241 0 0.9458466
vn -0.1039558 0 0.9890739
vn -0.1039558 0 0.9890739
vn -0.1039558 0 0.9890739
vn -0.1039558 0 0.9890739
vn 0.1039559 0 0.9890738
vn 0.1039559 0 0.9890738
vn 0.1039559 0 0.9890738
vn 0.1039559 0 0.9890738
vn 0.3073242 0 0.9458465
vn 0.3073242 0 0.9458465
vn 0.3073242 0 0.9458465
vn 0.3073242 0 0.9458465
vn 0.4972609 0 0.8612812
vn 0.4972609 0 0.8612812
vn 0.4972609 0 0.8612812
vn 0.4972609 0 0.8612812
vn 0.6654651 0 0.7390738
vn 0.6654651 0 0.7390738
vn 0.6654651 0 0.7390738
vn 0.6654651 0 0.7390738
vn 0.8045852 0 0.5845652
vn 0.8045852 0 0.5845652
vn 0.8045852 0 0.5845652
vn 0.8045852 0 0.5845652
vn 0.908541 0 0.4045084
vn 0.908541 0 0.4045084
vn 0.908541 0 0.4045084
vn 0.908541 0 0.4045084
vn 0.9727892 0 0.2067726
vn 0.9727892 0 0.2067726
vn 0.9727892 0 0.2067726
vn 0.9727892 0 0.2067726
vn 0.9945219 0 -1.41561E-07
vn 0.9945219 0 -1.41561E-07
vn 0.9945219 0 -1.41561E-07
vn 0.9945219 0 -1.41561E-07
vn 0.9727892 0 -0.2067728
vn 0.9727892 0 -0.2067728
vn 0.9727892 0 -0.2067728
vn 0.9727892 0 -0.2067728
vn 0.908541 0 -0.4045085
vn 0.908541 0 -0.4045085
vn 0.908541 0 -0.4045085
vn 0.908541 0 -0.4045085
vn 0.8045852 0 -0.5845652
vn 0.8045852 0 -0.5845652
vn 0.8045852 0 -0.5845652
vn 0.8045852 0 -0.5845652
vn 0.6654651 0 -0.7390737
vn 0.6654651 0 -0.7390737
vn 0.6654651 0 -0.7390737
vn 0.6654651 0 -0.7390737
vn 0.497261 0 -0.8612812
vn 0.497261 0 -0.8612812
vn 0.497261 0 -0.8612812
vn 0.497261 0 -0.8612812
vn 0.3073242 0 -0.9458466
vn 0.3073242 0 -0.9458466
vn 0.3073242 0 -0.9458466
vn 0.3073242 0 -0.9458466
vn 0.1039559 0 -0.9890738
vn 0.1039559 0 -0.9890738
vn 0.1039559 0 -0.9890738
vn 0.1039559 0 -0.9890738
vn -0.1039559 0 -0.9890738
vn -0.1039559 0 -0.9890738
vn -0.1039559 0 -0.9890738
vn -0.1039559 0 -0.9890738
vn -0.3073242 0 -0.9458466
vn -0.3073242 0 -0.9458466
vn -0.3073242 0 -0.9458466
vn -0.3073242 0 -0.9458466
vn -0.4972609 0 -0.8612813
vn -0.4972609 0 -0.8612813
vn -0.4972609 0 -0.8612813
vn -0.4972609 0 -0.8612813
vn -0.6654651 0 -0.7390738
vn -0.6654651 0 -0.7390738
vn -0.6654651 0 -0.7390738
vn -0.6654651 0 -0.7390738
vn -0.8045852 0 -0.5845653
vn -0.8045852 0 -0.5845653
vn -0.8045852 0 -0.5845653
vn -0.8045852 0 -0.5845653
vn -0.908541 0 -0.4045084
vn -0.908541 0 -0.4045084
vn -0.908541 0 -0.4045084
vn -0.908541 0 -0.4045084
vn -0.9727893 0 -0.2067727
vn -0.9727893 0 -0.2067727
vn -0.9727893 0 -0.2067727
vn -0.9727893 0 -0.2067727
vn -0.9945219 0 -1.229346E-07
vn -0.9945219 0 -1.229346E-07
vn 0 -1 0
vn 0 -1 0
vn 0 -1 0
vn 0 1 0
vn 0 1 0
vn 0 1 0
vn 0 -1 0
vn 0 -1 0
vn 0 -1 0
vn 0 1 0
vn 0 1 0
vn 0 1 0
vn 0 -1 0
vn 0 -1 0
vn 0 -1 0
vn 0 1 0
vn 0 1 0
vn 0 1 0
vn 0 -1 0
vn 0 -1 0
vn 0 -1 0
vn 0 1 0
vn 0 1 0
vn 0 1 0
vn 0 -1 0
vn 0 -1 0
vn 0 -1 0
vn 0 1 0
vn 0 1 0
vn 0 1 0
vn 0 -1 0
vn 0 -1 0
vn 0 -1 0
vn 0 1 0
vn 0 1 0
vn 0 1 0
vn 0 -1 0
vn 0 -1 0
vn 0 -1 0
vn 0 1 0
vn 0 1 0
vn 0 1 0
vn 0 -1 0
vn 0 -1 0
vn 0 -1 0
vn 0 1 0
vn 0 1 0
vn 0 1 0
vn 0 -1 0
vn 0 -1 0
vn 0 -1 0
vn 0 0.9999999 0
vn 0 0.9999999 0
vn 0 0.9999999 0
vn 0 -0.9999999 0
vn 0 -0.9999999 0
vn 0 -0.9999999 0
vn 0 0.9999999 0
vn 0 0.9999999 0
vn 0 0.9999999 0
vn 0 -1 0
vn 0 -1 0
vn 0 -1 0
vn 0 1 0
vn 0 1 0
vn 0 1 0
vn 0 -1 0
vn 0 -1 0
vn 0 -1 0
vn 0 1 0
vn 0 1 0
vn 0 1 0
vn 0 -1 0
vn 0 -1 0
vn 0 -1 0
vn 0 1 0
vn 0 1 0
vn 0 1 0
vn 0 -1 0
vn 0 -1 0
vn 0 -1 0
vn 0 1 0
vn 0 1 0
vn 0 1 0
vn 0 -1 0
vn 0 -1 0
vn 0 -1 0
vn 0 1 0
vn 0 1 0
vn 0 1 0
vn 0 -1 0
vn 0 -1 0
vn 0 -1 0
vn 0 1 0
vn 0 1 0
vn 0 1 0
vn 0 -1 0
vn 0 -1 0
vn 0 -1 0
vn 0 1 0
vn 0 1 0
vn 0 1 0
vn 0 -1 0
vn 0 -1 0
vn 0 -1 0
vn 0 1 0
vn 0 1 0
vn 0 1 0
vn 0 -1 0
vn 0 -1 0
vn 0 -1 0
vn 0 1 0
vn 0 1 0
vn 0 1 0
vn 0 -1 0
vn 0 -1 0
vn 0 -1 0
vn 0 1 0
vn 0 1 0
vn 0 1 0
vn 0 -1 0
vn 0 -1 0
vn 0 -1 0
vn 0 1 0
vn 0 1 0
vn 0 1 0
vn 0 -0.9999999 0
vn 0 -0.9999999 0
vn 0 -0.9999999 0
vn 0 1 0
vn 0 1 0
vn 0 1 0
vn 0 -0.9999999 0
vn 0 -0.9999999 0
vn 0 -0.9999999 0
vn 0 0.9999999 0
vn 0 0.9999999 0
vn 0 0.9999999 0
vn 0 -1 0
vn 0 -1 0
vn 0 -1 0
vn 0 0.9999999 0
vn 0 0.9999999 0
vn 0 0.9999999 0
vn 0 -1 0
vn 0 -1 0
vn 0 -1 0
vn 0 1 0
vn 0 1 0
vn 0 1 0
vn 0 -1 0
vn 0 -1 0
vn 0 -1 0
vn 0 1 0
vn 0 1 0
vn 0 1 0
vn 0 -1 0
vn 0 -1 0
vn 0 -1 0
vn 0 0.9999999 0
vn 0 0.9999999 0
vn 0 0.9999999 0
vn 0 -1 0
vn 0 -1 0
vn 0 -1 0
vn 0 1 0
vn 0 1 0
vn 0 1 0
vn 0 -1 0
vn 0 -1 0
vn 0 -1 0
vn 0 1 0
vn 0 1 0
vn 0 1 0
vn 0 -1 0
vn 0 -1 0
vn 0 -1 0
vn 0 1 0
vn 0 1 0
vn 0 1 0

vt -2.810329 -7.423109
vt -2.810329 -7.369274
vt -2.726707 -7.423109
vt -2.726707 -7.369274
vt -2.726774 -7.423109
vt -2.726774 -7.369274
vt -2.643151 -7.423109
vt -2.643151 -7.369274
vt -2.641585 -7.423109
vt -2.641585 -7.369274
vt -2.557962 -7.423109
vt -2.557962 -7.369274
vt -2.5585 -7.423109
vt -2.5585 -7.369274
vt -2.474878 -7.423109
vt -2.474878 -7.369274
vt -2.475415 -7.423109
vt -2.475415 -7.369274
vt -2.391793 -7.423109
vt -2.391793 -7.369274
vt -2.391279 -7.423109
vt -2.391279 -7.369274
vt -2.307657 -7.423109
vt -2.307657 -7.369274
vt -2.307143 -7.423109
vt -2.307143 -7.369274
vt -2.223521 -7.423109
vt -2.223521 -7.369274
vt -2.220903 -7.423109
vt -2.220903 -7.369274
vt -2.137281 -7.423109
vt -2.137281 -7.369274
vt -2.136768 -7.423109
vt -2.136768 -7.369274
vt -2.053145 -7.423109
vt -2.053145 -7.369274
vt -2.053578 -7.423109
vt -2.053578 -7.369274
vt -1.969955 -7.423109
vt -1.969955 -7.369274
vt -1.97025 -7.423109
vt -1.97025 -7.369274
vt -1.886627 -7.423109
vt -1.886627 -7.369274
vt -1.886923 -7.423109
vt -1.886923 -7.369274
vt -1.8033 -7.423109
vt -1.8033 -7.369274
vt -1.803595 -7.423109
vt -1.803595 -7.369274
vt -1.719972 -7.423109
vt -1.719972 -7.369274
vt -1.718845 -7.423109
vt -1.718845 -7.369274
vt -1.635223 -7.423109
vt -1.635223 -7.369274
vt -1.634096 -7.423109
vt -1.634096 -7.369274
vt -1.550473 -7.423109
vt -1.550473 -7.369274
vt -1.549347 -7.423109
vt -1.549347 -7.369274
vt -1.465724 -7.423109
vt -1.465724 -7.369274
vt -1.464597 -7.423109
vt -1.464597 -7.369274
vt -1.380974 -7.423109
vt -1.380974 -7.369274
vt -1.379847 -7.423109
vt -1.379847 -7.369274
vt -1.296225 -7.423109
vt -1.296225 -7.369274
vt -1.295097 -7.423109
vt -1.295097 -7.369274
vt -1.211475 -7.423109
vt -1.211475 -7.369274
vt -1.209344 -7.423109
vt -1.209344 -7.369274
vt -1.125721 -7.423109
vt -1.125721 -7.369274
vt -1.12359 -7.423109
vt -1.12359 -7.369274
vt -1.039967 -7.423109
vt -1.039967 -7.369274
vt -1.037836 -7.423109
vt -1.037836 -7.369274
vt -0.954213 -7.423109
vt -0.954213 -7.369274
vt -0.952082 -7.423109
vt -0.952082 -7.369274
vt -0.8684593 -7.423109
vt -0.8684593 -7.369274
vt -0.8666898 -7.423109
vt -0.8666898 -7.369274
vt -0.783067 -7.423109
vt -0.783067 -7.369274
vt -0.7821009 -7.423109
vt -0.7821009 -7.369274
vt -0.6984782 -7.423109
vt -0.6984782 -7.369274
vt -0.6975108 -7.423109
vt -0.6975108 -7.369274
vt -0.613888 -7.423109
vt -0.613888 -7.369274
vt -0.6093987 -7.423109
vt -0.6093987 -7.369274
vt -0.525776 -7.423109
vt -0.525776 -7.369274
vt -0.5290491 -7.423109
vt -0.5290491 -7.369274
vt -0.4454262 -7.423109
vt -0.4454262 -7.369274
vt -0.4487027 -7.423109
vt -0.4487027 -7.369274
vt -0.36508 -7.423109
vt -0.36508 -7.369274
vt -0.3626145 -7.423109
vt -0.3626145 -7.369274
vt -0.2789917 -7.423109
vt -0.2789917 -7.369274
vt 10.79748 3.620017
vt 10.54748 3.620017
vt 10.79201 3.671995
vt 14.63416 13.33467
vt 14.38416 13.33467
vt 14.6287 13.38665
vt 10.79201 3.671995
vt 10.54748 3.620017
vt 10.77586 3.721702
vt 14.6287 13.38665
vt 14.38416 13.33467
vt 14.61255 13.43636
vt 10.77586 3.721702
vt 10.54748 3.620017
vt 10.74973 3.766963
vt 14.61255 13.43636
vt 14.38416 13.33467
vt 14.58642 13.48162
vt 10.74973 3.766963
vt 10.54748 3.620017
vt 10.71476 3.805803
vt 14.58642 13.48162
vt 14.38416 13.33467
vt 14.55145 13.52046
vt 10.71476 3.805803
vt 10.54748 3.620017
vt 10.67248 3.836524
vt 14.55145 13.52046
vt 14.38416 13.33467
vt 14.50916 13.55118
vt 10.67248 3.836524
vt 10.54748 3.620017
vt 10.62473 3.857781
vt 14.50916 13.55118
vt 14.38416 13.33467
vt 14.46142 13.57244
vt 10.62473 3.857781
vt 10.54748 3.620017
vt 10.57361 3.868648
vt 14.46142 13.57244
vt 14.38416 13.33467
vt 14.41029 13.5833
vt 10.57361 3.868648
vt 10.54748 3.620017
vt 10.52134 3.868648
vt 14.41029 13.5833
vt 14.38416 13.33467
vt 14.35803 13.5833
vt 10.52134 3.868648
vt 10.54748 3.620017
vt 10.47022 3.857781
vt 14.35803 13.5833
vt 14.38416 13.33467
vt 14.30691 13.57244
vt 10.47022 3.857781
vt 10.54748 3.620017
vt 10.42248 3.836524
vt 14.30691 13.57244
vt 14.38416 13.33467
vt 14.25916 13.55118
vt 10.42248 3.836524
vt 10.54748 3.620017
vt 10.38019 3.805803
vt 14.25916 13.55118
vt 14.38416 13.33467
vt 14.21688 13.52046
vt 10.38019 3.805803
vt 10.54748 3.620017
vt 10.34522 3.766963
vt 14.21688 13.52046
vt 14.38416 13.33467
vt 14.18191 13.48162
vt 10.34522 3.766963
vt 10.54748 3.620017
vt 10.31909 3.721702
vt 14.18191 13.48162
vt 14.38416 13.33467
vt 14.15578 13.43636
vt 10.31909 3.721702
vt 10.54748 3.620017
vt 10.30294 3.671995
vt 14.15578 13.43636
vt 14.38416 13.33467
vt 14.13963 13.38665
vt 10.30294 3.671995
vt 10.54748 3.620017
vt 10.29748 3.620017
vt 14.13963 13.38665
vt 14.38416 13.33467
vt 14.13416 13.33467
vt 10.29748 3.620017
vt 10.54748 3.620017
vt 10.30294 3.568039
vt 14.13416 13.33467
vt 14.38416 13.33467
vt 14.13963 13.2827
vt 10.30294 3.568039
vt 10.54748 3.620017
vt 10.31909 3.518333
vt 14.13963 13.2827
vt 14.38416 13.33467
vt 14.15578 13.23299
vt 10.31909 3.518333
vt 10.54748 3.620017
vt 10.34522 3.473071
vt 14.15578 13.23299
vt 14.38416 13.33467
vt 14.18191 13.18773
vt 10.34522 3.473071
vt 10.54748 3.620017
vt 10.38019 3.434231
vt 14.18191 13.18773
vt 14.38416 13.33467
vt 14.21688 13.14889
vt 10.38019 3.434231
vt 10.54748 3.620017
vt 10.42248 3.403511
vt 14.21688 13.14889
vt 14.38416 13.33467
vt 14.25916 13.11817
vt 10.42248 3.403511
vt 10.54748 3.620017
vt 10.47022 3.382253
vt 14.25916 13.11817
vt 14.38416 13.33467
vt 14.30691 13.09691
vt 10.47022 3.382253
vt 10.54748 3.620017
vt 10.52134 3.371387
vt 14.30691 13.09691
vt 14.38416 13.33467
vt 14.35803 13.08604
vt 10.52134 3.371387
vt 10.54748 3.620017
vt 10.57361 3.371387
vt 14.35803 13.08604
vt 14.38416 13.33467
vt 14.41029 13.08604
vt 10.57361 3.371387
vt 10.54748 3.620017
vt 10.62473 3.382253
vt 14.41029 13.08604
vt 14.38416 13.33467
vt 14.46142 13.09691
vt 10.62473 3.382253
vt 10.54748 3.620017
vt 10.67248 3.403511
vt 14.46142 13.09691
vt 14.38416 13.33467
vt 14.50916 13.11817
vt 10.67248 3.403511
vt 10.54748 3.620017
vt 10.71476 3.434231
vt 14.50916 13.11817
vt 14.38416 13.33467
vt 14.55145 13.14889
vt 10.71476 3.434231
vt 10.54748 3.620017
vt 10.74973 3.473071
vt 14.55145 13.14889
vt 14.38416 13.33467
vt 14.58642 13.18773
vt 10.74973 3.473071
vt 10.54748 3.620017
vt 10.77586 3.518333
vt 14.58642 13.18773
vt 14.38416 13.33467
vt 14.61255 13.23299
vt 10.77586 3.518333
vt 10.54748 3.620017
vt 10.79201 3.568039
vt 14.61255 13.23299
vt 14.38416 13.33467
vt 14.6287 13.2827
vt 10.79201 3.568039
vt 10.54748 3.620017
vt 10.79748 3.620017
vt 14.6287 13.2827
vt 14.38416 13.33467
vt 14.63416 13.33467

g Cylinder_0
usemtl Lazurite_polie_(Afghanistan)
f 3/3/3 4/4/4 2/2/2 1/1/1
f 7/7/7 8/8/8 6/6/6 5/5/5
f 11/11/11 12/12/12 10/10/10 9/9/9
f 15/15/15 16/16/16 14/14/14 13/13/13
f 19/19/19 20/20/20 18/18/18 17/17/17
f 23/23/23 24/24/24 22/22/22 21/21/21
f 27/27/27 28/28/28 26/26/26 25/25/25
f 31/31/31 32/32/32 30/30/30 29/29/29
f 35/35/35 36/36/36 34/34/34 33/33/33
f 39/39/39 40/40/40 38/38/38 37/37/37
f 43/43/43 44/44/44 42/42/42 41/41/41
f 47/47/47 48/48/48 46/46/46 45/45/45
f 51/51/51 52/52/52 50/50/50 49/49/49
f 55/55/55 56/56/56 54/54/54 53/53/53
f 59/59/59 60/60/60 58/58/58 57/57/57
f 63/63/63 64/64/64 62/62/62 61/61/61
f 67/67/67 68/68/68 66/66/66 65/65/65
f 71/71/71 72/72/72 70/70/70 69/69/69
f 75/75/75 76/76/76 74/74/74 73/73/73
f 79/79/79 80/80/80 78/78/78 77/77/77
f 83/83/83 84/84/84 82/82/82 81/81/81
f 87/87/87 88/88/88 86/86/86 85/85/85
f 91/91/91 92/92/92 90/90/90 89/89/89
f 95/95/95 96/96/96 94/94/94 93/93/93
f 99/99/99 100/100/100 98/98/98 97/97/97
f 103/103/103 104/104/104 102/102/102 101/101/101
f 107/107/107 108/108/108 106/106/106 105/105/105
f 111/111/111 112/112/112 110/110/110 109/109/109
f 115/115/115 116/116/116 114/114/114 113/113/113
f 119/119/119 120/120/120 118/118/118 117/117/117

g Cylinder_1
usemtl Lazurite_polie_(Afghanistan)
f 121/121/121 122/122/122 123/123/123
f 127/127/127 128/128/128 129/129/129
f 133/133/133 134/134/134 135/135/135
f 139/139/139 140/140/140 141/141/141
f 145/145/145 146/146/146 147/147/147
f 151/151/151 152/152/152 153/153/153
f 157/157/157 158/158/158 159/159/159
f 163/163/163 164/164/164 165/165/165
f 169/169/169 170/170/170 171/171/171
f 175/175/175 176/176/176 177/177/177
f 181/181/181 182/182/182 183/183/183
f 187/187/187 188/188/188 189/189/189
f 193/193/193 194/194/194 195/195/195
f 199/199/199 200/200/200 201/201/201
f 205/205/205 206/206/206 207/207/207
f 211/211/211 212/212/212 213/213/213
f 217/217/217 218/218/218 219/219/219
f 223/223/223 224/224/224 225/225/225
f 229/229/229 230/230/230 231/231/231
f 235/235/235 236/236/236 237/237/237
f 241/241/241 242/242/242 243/243/243
f 247/247/247 248/248/248 249/249/249
f 253/253/253 254/254/254 255/255/255
f 259/259/259 260/260/260 261/261/261
f 265/265/265 266/266/266 267/267/267
f 271/271/271 272/272/272 273/273/273
f 277/277/277 278/278/278 279/279/279
f 283/283/283 284/284/284 285/285/285
f 289/289/289 290/290/290 291/291/291
f 295/295/295 296/296/296 297/297/297
f 126/126/126 125/125/125 124/124/124
f 132/132/132 131/131/131 130/130/130
f 138/138/138 137/137/137 136/136/136
f 144/144/144 143/143/143 142/142/142
f 150/150/150 149/149/149 148/148/148
f 156/156/156 155/155/155 154/154/154
f 162/162/162 161/161/161 160/160/160
f 168/168/168 167/167/167 166/166/166
f 174/174/174 173/173/173 172/172/172
f 180/180/180 179/179/179 178/178/178
f 186/186/186 185/185/185 184/184/184
f 192/192/192 191/191/191 190/190/190
f 198/198/198 197/197/197 196/196/196
f 204/204/204 203/203/203 202/202/202
f 210/210/210 209/209/209 208/208/208
f 216/216/216 215/215/215 214/214/214
f 222/222/222 221/221/221 220/220/220
f 228/228/228 227/227/227 226/226/226
f 234/234/234 233/233/233 232/232/232
f 240/240/240 239/239/239 238/238/238
f 246/246/246 245/245/245 244/244/244
f 252/252/252 251/251/251 250/250/250
f 258/258/258 257/257/257 256/256/256
f 264/264/264 263/263/263 262/262/262
f 270/270/270 269/269/269 268/268/268
f 276/276/276 275/275/275 274/274/274
f 282/282/282 281/281/281 280/280/280
f 288/288/288 287/287/287 286/286/286
f 294/294/294 293/293/293 292/292/292
f 300/300/300 299/299/299 298/298/298

